<svg width="32" height="32" viewBox="0 0 32 32" fill="none" xmlns="http://www.w3.org/2000/svg">
<rect width="32" height="32" rx="16" fill="white"/>
<path fill-rule="evenodd" clip-rule="evenodd" d="M32 16C32 24.8365 24.8365 32 16 32C7.16344 32 0 24.8365 0 16C0 7.16344 7.16344 0 16 0C24.8365 0 32 7.16344 32 16ZM18.381 7.11346C19.0211 7.28498 19.401 7.94299 19.2294 8.58315L15.0883 24.0379C14.9168 24.6781 14.2587 25.0581 13.6186 24.8866C12.9784 24.7149 12.5986 24.057 12.7701 23.4168L16.9112 7.96198C17.0827 7.32182 17.7408 6.94192 18.381 7.11346ZM20.7515 10.3515C21.2202 9.88285 21.9798 9.88285 22.4485 10.3515L22.7819 10.6848C23.7984 11.7013 24.6461 12.5489 25.2285 13.3123C25.8434 14.1181 26.2746 14.9694 26.2746 16C26.2746 17.0306 25.8434 17.8819 25.2285 18.6877C24.6461 19.451 23.7984 20.2987 22.7819 21.3152L22.4485 21.6485C21.9798 22.1171 21.2202 22.1171 20.7515 21.6485C20.2829 21.1798 20.2829 20.4202 20.7515 19.9515L21.0259 19.677C22.1166 18.5862 22.8475 17.8518 23.3205 17.2318C23.7723 16.6397 23.8746 16.2949 23.8746 16C23.8746 15.7051 23.7723 15.3603 23.3205 14.7682C22.8475 14.1482 22.1166 13.4138 21.0259 12.3231L20.7515 12.0485C20.2829 11.5799 20.2829 10.8201 20.7515 10.3515ZM9.55178 10.3515C10.0204 9.88285 10.7802 9.88285 11.2488 10.3515C11.7175 10.8201 11.7175 11.5799 11.2488 12.0485L10.9743 12.3231C9.88366 13.4138 9.15283 14.1482 8.67981 14.7682C8.22792 15.3603 8.12578 15.7051 8.12578 16C8.12578 16.2949 8.22792 16.6397 8.67981 17.2318C9.15283 17.8518 9.88366 18.5862 10.9743 19.677L11.2488 19.9515C11.7175 20.4202 11.7175 21.1798 11.2488 21.6485C10.7802 22.1171 10.0204 22.1171 9.55178 21.6485L9.21842 21.3152C8.20187 20.2987 7.35421 19.451 6.77176 18.6877C6.15698 17.8819 5.72578 17.0306 5.72578 16C5.72578 14.9694 6.15698 14.1181 6.77176 13.3123C7.35421 12.5489 8.20187 11.7013 9.21842 10.6848L9.55178 10.3515Z" fill="#252526"/>
</svg>
